<?xml version="1.0" standalone="no"?>
<!DOCTYPE svg PUBLIC "-//W3C//DTD SVG 20010904//EN"
 "http://www.w3.org/TR/2001/REC-SVG-20010904/DTD/svg10.dtd">
<svg version="1.0" xmlns="http://www.w3.org/2000/svg"
 width="200.000000pt" height="200.000000pt" viewBox="0 0 200.000000 200.000000"
 preserveAspectRatio="xMidYMid meet">
<metadata>
Created by potrace 1.14, written by Peter Selinger 2001-2017
</metadata>
<g transform="translate(0.000000,200.000000) scale(0.100000,-0.100000)"
fill="#000000" stroke="none">
<path d="M1029 1315 c-2 -2 -44 -5 -92 -6 -86 -2 -141 -9 -242 -29 -27 -6 -59
-12 -70 -14 -45 -9 -154 -50 -207 -78 -155 -83 -215 -193 -163 -302 15 -31 69
-96 80 -96 2 0 32 -17 66 -38 119 -72 326 -126 482 -126 26 0 47 -4 47 -9 0
-4 5 -5 10 -2 6 4 68 8 138 10 135 4 163 7 257 30 33 9 71 18 84 21 14 3 29 8
35 12 6 3 18 7 26 9 8 1 48 19 90 40 159 80 229 199 176 302 -18 33 -97 115
-116 119 -8 2 -17 7 -20 10 -9 12 -64 40 -85 44 -11 1 -23 7 -26 11 -3 5 -12
9 -20 10 -8 2 -18 5 -24 8 -9 6 -32 11 -145 38 -63 15 -92 19 -184 27 -45 3
-84 8 -87 10 -3 2 -8 2 -10 -1z m-294 -273 c6 -4 10 -14 11 -23 1 -11 -6 -14
-27 -11 -24 4 -29 1 -29 -17 0 -14 8 -23 25 -27 23 -6 33 -23 19 -36 -12 -12
-60 10 -71 32 -23 46 34 110 72 82z m135 -109 c0 -2 -9 -3 -20 -3 -11 0 -20 5
-20 10 0 6 -9 10 -20 10 -11 0 -20 -4 -20 -10 0 -5 -9 -10 -20 -10 -11 0 -20
2 -20 4 0 17 44 97 58 105 14 8 20 0 39 -47 13 -30 23 -57 23 -59z m145 45 c6
-40 5 -48 -9 -48 -9 0 -16 8 -16 19 0 28 -18 36 -22 9 -4 -31 -26 -34 -38 -4
-9 24 -22 36 -19 19 4 -25 -3 -43 -16 -43 -14 0 -14 13 1 88 6 31 32 28 45 -5
l11 -28 10 25 c11 30 30 43 39 27 4 -7 10 -33 14 -59z m83 63 c8 -1 12 -7 9
-13 -2 -7 -9 -12 -15 -11 -6 2 -9 -11 -8 -30 3 -32 -8 -57 -25 -57 -5 0 -8 18
-7 41 1 24 -4 44 -12 49 -19 11 -5 27 22 24 13 -1 29 -3 36 -3z m106 -24 c9
-14 7 -21 -7 -31 -15 -12 -15 -15 -2 -26 8 -7 15 -16 15 -21 0 -14 -38 -11
-44 4 -5 10 -7 10 -12 0 -3 -7 -11 -13 -18 -13 -13 0 -22 92 -12 109 9 14 68
-3 80 -22z m224 10 c3 -12 -3 -17 -21 -17 -26 0 -38 -15 -29 -37 2 -7 15 -13
28 -13 31 0 32 -27 2 -32 -35 -5 -71 33 -62 66 12 48 74 74 82 33z m-131 1
c14 -20 35 -89 29 -95 -3 -3 -13 -2 -23 3 -30 13 -52 12 -57 -3 -8 -20 -26 -7
-21 15 2 10 10 35 19 55 15 38 36 47 53 25z"/>
<path d="M800 980 c0 -5 5 -10 10 -10 6 0 10 5 10 10 0 6 -4 10 -10 10 -5 0
-10 -4 -10 -10z"/>
<path d="M1150 1011 c0 -6 5 -13 10 -16 6 -3 10 1 10 9 0 9 -4 16 -10 16 -5 0
-10 -4 -10 -9z"/>
<path d="M1270 985 c0 -8 4 -15 10 -15 5 0 7 7 4 15 -4 8 -8 15 -10 15 -2 0
-4 -7 -4 -15z"/>
</g>
</svg>
