<svg xmlns="http://www.w3.org/2000/svg" width="28" height="28" viewBox="0 0 28 28"><defs><style>.a{fill:none;}.b{fill:#fff;}</style></defs><g transform="translate(-0.179 -0.293)"><g transform="translate(0 0)"><rect class="a" width="28" height="28" transform="translate(0.179 0.293)"/></g><g transform="translate(2.258 2.415)"><path class="b" d="M19.009,14.921H17.257V13.168a1.168,1.168,0,1,0-2.336,0v1.752H13.168a1.168,1.168,0,1,0,0,2.336h1.752v1.752a1.168,1.168,0,1,0,2.336,0V17.257h1.752a1.168,1.168,0,1,0,0-2.336Z" transform="translate(-7.327 -7.327)"/><path class="b" d="M27.014,25.378l-7.3-7.3a8.79,8.79,0,1,0-1.635,1.635l7.3,7.3a1.157,1.157,0,1,0,1.635-1.635ZM12.762,19.187a6.425,6.425,0,1,1,6.425-6.425A6.425,6.425,0,0,1,12.762,19.187Z" transform="translate(-4 -4)"/></g></g></svg>