<svg xmlns="http://www.w3.org/2000/svg" width="22" height="24" viewBox="0 0 22 24"><defs><style>.a{fill:none;}.b{fill:#fff;}</style></defs><g transform="translate(-0.406 -0.293)"><g transform="translate(0 0)"><rect class="a" width="22" height="24" transform="translate(0.406 0.293)"/></g><g transform="translate(2.352 1.125)"><path class="b" d="M4.781,1.989a.839.839,0,0,1,.741.248,1.135,1.135,0,0,1,.316.811V5.643A9.2,9.2,0,0,1,16.93,2.813c3.851,1.763,6.379,6.053,6.379,10.826h0a.929.929,0,1,1-1.839,0h0a9.593,9.593,0,0,0-5.321-8.894A7.56,7.56,0,0,0,7.034,7.284H9.471a1.009,1.009,0,0,1,.965.9,1.173,1.173,0,0,1-.215.854.872.872,0,0,1-.7.364h-4.6A1,1,0,0,1,4,8.344V3.1A1.087,1.087,0,0,1,4.781,1.989Z" transform="translate(-4 -1.977)"/><path class="b" d="M23.059,42h0A1.059,1.059,0,1,1,22,43.059,1.059,1.059,0,0,1,23.059,42Z" transform="translate(-13.856 -22.043)"/><path class="b" d="M32.664,39.458h0a1.045,1.045,0,1,1,1.059,1.8,1.059,1.059,0,0,1-1.059-1.8Z" transform="translate(-19.473 -20.772)"/><path class="b" d="M39.458,32.529a1.006,1.006,0,0,1,1.43-.371,1.059,1.059,0,0,1,.424,1.43,1.112,1.112,0,0,1-1.483.371,1.006,1.006,0,0,1-.371-1.43Z" transform="translate(-23.538 -17.028)"/><path class="b" d="M5.229,32.158a1.006,1.006,0,0,1,1.43.371h0a1.006,1.006,0,0,1-.371,1.43,1.045,1.045,0,1,1-1.059-1.8Z" transform="translate(-4.329 -17.029)"/><path class="b" d="M13.6,39.458h0a1.006,1.006,0,0,1,.371,1.43,1.059,1.059,0,0,1-1.43.424,1.112,1.112,0,0,1-.371-1.483,1.006,1.006,0,0,1,1.43-.371Z" transform="translate(-8.396 -20.772)"/></g></g></svg>