<svg xmlns="http://www.w3.org/2000/svg" width="101.119" height="91.341" viewBox="0 0 101.119 91.341"><defs><style>.a{fill:#1c2545;}</style></defs><g transform="translate(-1.25 -4.32)"><path class="a" d="M101.174,77.03H97.639V34.194a1.194,1.194,0,1,0-2.389,0V77.03H8.368V19.194a6.116,6.116,0,0,1,6.115-6.115H55.265a1.194,1.194,0,0,0,0-2.389H14.483a8.512,8.512,0,0,0-8.5,8.5V77.014H2.444A1.2,1.2,0,0,0,1.25,78.209V85.2a1.193,1.193,0,0,0,.35.844l5.494,5.494a1.193,1.193,0,0,0,.844.35H95.7a1.193,1.193,0,0,0,.844-.35l5.478-5.494a1.193,1.193,0,0,0,.35-.844V78.224A1.193,1.193,0,0,0,101.174,77.03ZM99.98,84.722,95.2,89.515H8.432L3.639,84.722v-5.3H99.98Z" transform="translate(0 3.774)"/><path class="a" d="M30.564,58.649h9.172a1.194,1.194,0,0,0,0-2.389H30.564a1.194,1.194,0,1,0,0,2.389Z" transform="translate(16.659 30.77)"/><path class="a" d="M76.562,4.32H41.8A4.377,4.377,0,0,0,37.42,8.7V30.006A4.377,4.377,0,0,0,41.8,34.385H76.562a4.377,4.377,0,0,0,4.379-4.379V8.7A4.377,4.377,0,0,0,76.562,4.32Zm1.991,25.686A1.991,1.991,0,0,1,76.562,32H41.8a1.991,1.991,0,0,1-1.991-1.991V8.7A1.991,1.991,0,0,1,41.8,6.709H76.562A1.991,1.991,0,0,1,78.552,8.7Z" transform="translate(21.428 0)"/><path class="a" d="M60.812,15.366l-10-6.768a2,2,0,0,0-3.121,1.64V23.79a1.948,1.948,0,0,0,1.067,1.752A1.929,1.929,0,0,0,50.8,25.43l10-6.784a1.984,1.984,0,0,0,.016-3.28ZM50.095,23.042V11l8.886,6.019Z" transform="translate(27.512 2.33)"/><path class="a" d="M43.508,44.27l3.726-1.1a2.438,2.438,0,0,0,1.035-4.061l-4.7-4.7A6.9,6.9,0,0,0,33.954,24.8l-4.7-4.7a2.383,2.383,0,0,0-2.325-.637A2.422,2.422,0,0,0,25.2,21.132l-1.1,3.726L19.622,40.1,12.3,47.439a3.583,3.583,0,0,0-1.067,2.6,3.676,3.676,0,0,0,1.067,2.6l3.456,3.456a3.656,3.656,0,0,0,5.08.08l5.1,5.1a4.239,4.239,0,0,0,5.987-6l-5.1-5.1,1.433-1.433ZM41.12,27.247a4.549,4.549,0,0,1,.733,5.446l-6.179-6.179A4.543,4.543,0,0,1,41.12,27.247Zm-13.631-5.43.064-.016,19,19.093-3.057.892L35.037,33.33l-8.456-8.456ZM25.832,27.47,33.365,35,40.9,42.535l-12.915,3.79L25,43.347l-2.978-2.978ZM17.44,54.4l-3.456-3.456a1.277,1.277,0,0,1-.382-.908,1.24,1.24,0,0,1,.382-.908l6.7-6.7,2.627,2.627,2.627,2.627-6.7,6.7a1.293,1.293,0,0,1-1.8.016Zm12.787,5.175a1.86,1.86,0,0,1-2.627,0l-5.1-5.1,2.627-2.627,5.1,5.1A1.845,1.845,0,0,1,30.228,59.573Z" transform="translate(5.912 8.921)"/><path class="a" d="M36.152,21.447a1.194,1.194,0,0,0-1.688-1.688l-1.895,1.895a1.2,1.2,0,0,0,0,1.688,1.192,1.192,0,0,0,1.688,0Z" transform="translate(18.349 8.941)"/><path class="a" d="M34.274,23.3a1.194,1.194,0,1,0,0,2.389H36.95a1.194,1.194,0,0,0,0-2.389Z" transform="translate(18.857 11.244)"/><path class="a" d="M31.909,21.94V19.264a1.194,1.194,0,1,0-2.389,0V21.94a1.194,1.194,0,1,0,2.389,0Z" transform="translate(16.748 8.146)"/><path class="a" d="M41.444,36.569H56.063a1.194,1.194,0,1,0,0-2.389H41.444a1.194,1.194,0,0,0,0,2.389Z" transform="translate(23.104 17.69)"/><path class="a" d="M52.386,37.06H43.134a1.194,1.194,0,1,0,0,2.389h9.252a1.194,1.194,0,1,0,0-2.389Z" transform="translate(24.106 19.396)"/><path class="a" d="M39.957,48.971H51.613L56.1,52.14a1.21,1.21,0,0,0,.685.223,1.357,1.357,0,0,0,.557-.127,1.2,1.2,0,0,0,.637-1.067V48.987h3.249A2.8,2.8,0,0,0,64.018,46.2V33.4a2.8,2.8,0,0,0-2.787-2.787H39.957A2.8,2.8,0,0,0,37.17,33.4V46.2a2.776,2.776,0,0,0,2.787,2.771Zm-.4-15.59a.394.394,0,0,1,.4-.4H61.231a.394.394,0,0,1,.4.4v12.8a.394.394,0,0,1-.4.4H56.789a1.2,1.2,0,0,0-1.194,1.194v1.083L52.68,46.8A1.21,1.21,0,0,0,52,46.582H39.973a.394.394,0,0,1-.4-.4v-12.8Z" transform="translate(21.28 15.575)"/><path class="a" d="M52.33,15.884a1.2,1.2,0,0,0-1.194-1.194H10.354A2.134,2.134,0,0,0,8.22,16.824V69.485a1.2,1.2,0,0,0,1.194,1.194H85.946a1.2,1.2,0,0,0,1.194-1.194V31.824a1.194,1.194,0,1,0-2.389,0V68.291H10.609V17.079H51.136a1.2,1.2,0,0,0,1.194-1.194Z" transform="translate(4.129 6.143)"/></g></svg>