<svg xmlns="http://www.w3.org/2000/svg" width="90.397" height="78.744" viewBox="0 0 90.397 78.744"><defs><style>.a{fill:#1c2545;}</style></defs><g transform="translate(0 -33.001)"><path class="a" d="M73.153,64.351l-4.12,2.043c0-32.47.024-30.869-.049-31.247A2.649,2.649,0,0,0,66.385,33c-.3,0-63.527,0-63.753,0A2.651,2.651,0,0,0,0,35.65V83.32a2.648,2.648,0,0,0,2.648,2.648H31.956v3.708A6.189,6.189,0,0,0,36.8,95.708l-2.159,12.953a2.649,2.649,0,0,0,2.612,3.084H47.846a2.648,2.648,0,0,0,2.608-2.185L52.846,96.1l20.307,10.069a2.651,2.651,0,0,0,3.825-2.373V66.724A2.65,2.65,0,0,0,73.153,64.351ZM57.6,38.3,34.432,53.656,11.4,38.3ZM5.3,40.6,32.959,59.04a2.648,2.648,0,0,0,2.932,0L63.736,40.583V69.02l-11.39,5.648H38.136a6.186,6.186,0,0,0-6.175,6H5.3Zm32.839,49.96a.884.884,0,0,1-.883-.883V80.848a.884.884,0,0,1,.883-.883H50.318V90.558Zm2.243,15.89,1.766-10.593h5.366l-1.883,10.593Zm31.3-6.918L55.615,91.564V78.96l16.067-7.967Z" transform="translate(0 0)"/><path class="a" d="M469.707,253.309l2.825-1.236a2.648,2.648,0,1,0-2.123-4.852l-2.825,1.236a2.648,2.648,0,0,0,2.123,4.852Z" transform="translate(-383.722 -176.214)"/><path class="a" d="M472.532,375.457l-2.825-1.236a2.648,2.648,0,1,0-2.123,4.852l2.825,1.236a2.648,2.648,0,1,0,2.123-4.852Z" transform="translate(-383.722 -280.792)"/><path class="a" d="M471.473,314h-2.825a2.648,2.648,0,1,0,0,5.3h2.825a2.648,2.648,0,0,0,0-5.3Z" transform="translate(-383.725 -231.388)"/></g></svg>