<svg xmlns="http://www.w3.org/2000/svg" width="78" height="78" viewBox="0 0 78 78"><path d="M22.788,62.27a1.105,1.105,0,0,1,1.105-1.105H50.614a1.105,1.105,0,0,1,0,2.211H23.893A1.105,1.105,0,0,1,22.788,62.27Zm1.105-7.089H43.414a1.105,1.105,0,1,0,0-2.211H23.893a1.105,1.105,0,0,0,0,2.211Zm45.24,16.144V84.44A2.563,2.563,0,0,1,66.573,87H48.957a2.563,2.563,0,0,1-2.56-2.56V76.431a40.412,40.412,0,0,1-9.143,1.027c-1.3,0-2.611-.061-3.9-.181L19.705,86.8A1.105,1.105,0,0,1,18,85.645l2.741-11.806C13.369,70.224,9,64.419,9,58.173c0-4.284,2-8.333,5.772-11.709a30.539,30.539,0,0,1,14.215-6.741,1.105,1.105,0,1,1,.449,2.164,28.741,28.741,0,0,0-13.191,6.225c-3.294,2.946-5.035,6.425-5.035,10.062,0,5.584,4.21,10.833,11.262,14.042a1.105,1.105,0,0,1,.619,1.256L20.8,83.342,32.427,75.23a1.107,1.107,0,0,1,.747-.193,39.644,39.644,0,0,0,4.08.21,38.044,38.044,0,0,0,9.143-1.09V71.325a2.563,2.563,0,0,1,2.56-2.56h8.688C61.293,65.751,63.3,62,63.3,58.172c0-4.092-2.268-8.06-6.385-11.171a1.105,1.105,0,1,1,1.333-1.764c4.683,3.539,7.263,8.133,7.263,12.934a15.321,15.321,0,0,1-4.615,10.592h5.681a2.563,2.563,0,0,1,2.561,2.561Zm-2.211,0a.355.355,0,0,0-.35-.35H48.957a.355.355,0,0,0-.35.35V84.44a.355.355,0,0,0,.35.35H66.573a.355.355,0,0,0,.35-.35Zm-4.9,6.557a1.105,1.105,0,0,1-.553.957l-6.307,3.641a1.105,1.105,0,0,1-1.658-.957V74.241a1.105,1.105,0,0,1,1.658-.957l6.307,3.641a1.105,1.105,0,0,1,.553.957Zm-3.316,0-2.991-1.727v3.454Zm21.079-57.33a1.1,1.1,0,0,0,.552-.148l4.269-2.464A1.105,1.105,0,1,0,83.5,16.025l-4.269,2.464a1.105,1.105,0,0,0,.554,2.063Zm-7.115-4.987a1.1,1.1,0,0,0,1.51-.4l2.6-4.5a1.105,1.105,0,0,0-1.914-1.105l-2.6,4.5A1.105,1.105,0,0,0,72.672,15.565ZM79.59,27.548A1.105,1.105,0,0,0,80.7,28.653h5.2a1.105,1.105,0,0,0,0-2.211H80.7A1.105,1.105,0,0,0,79.59,27.548ZM32.764,39.678a8.419,8.419,0,0,1,3.942-5.151l5.781-3.338a1.1,1.1,0,0,1,1.151.028c5.941-4.446,10.626-9.594,13.31-14.633l-.1-.176a4.543,4.543,0,0,1,7.868-4.543l4.51,7.812a5.086,5.086,0,0,1,5.081,8.8l4.51,7.812A4.541,4.541,0,0,1,74.9,43.1a4.591,4.591,0,0,1-1.189-.158,4.511,4.511,0,0,1-2.759-2.112l-.1-.176c-5.655-.194-12.388,1.262-19.15,4.134l7.98,10.742a2.566,2.566,0,0,1-.325,3.443L57.6,60.568a2.582,2.582,0,0,1-1.732.668q-.123,0-.246-.012a2.544,2.544,0,0,1-1.791-1.007L45.478,49.046l-.291.168a8.4,8.4,0,0,1-4.211,1.133,8.58,8.58,0,0,1-2.222-.295,8.45,8.45,0,0,1-5.99-10.375ZM57.9,56.85,50.115,46.369l-2.709,1.564L55.6,58.895a.322.322,0,0,0,.233.13.361.361,0,0,0,.28-.093l1.755-1.593A.359.359,0,0,0,57.9,56.85ZM70.333,21.6,73.2,26.558A2.874,2.874,0,0,0,70.333,21.6ZM58.761,15.3l14.1,24.423a2.332,2.332,0,0,0,4.04-2.332L62.8,12.971A2.332,2.332,0,0,0,58.761,15.3ZM44.851,33.071l5.668,9.818A50.614,50.614,0,0,1,69.561,38.43L58.233,18.809A50.613,50.613,0,0,1,44.851,33.071ZM35.517,45.005A6.291,6.291,0,0,0,44.081,47.3l4.824-2.785-6.27-10.859-4.824,2.785a6.291,6.291,0,0,0-2.295,8.565ZM22.944,34.554h0ZM86.913,52.006a22.258,22.258,0,0,1-2.867,7.951,22.264,22.264,0,0,1-5.452,6.459,8.568,8.568,0,0,1-5.1,1.924,6.724,6.724,0,0,1-3.4-.944l-.4-.229A2.835,2.835,0,0,1,68.659,63.3l1.587-2.749a2.835,2.835,0,0,1,3.868-1.036l.931.537a.607.607,0,0,0,.777-.128,21.718,21.718,0,0,0,4.082-7.07.608.608,0,0,0-.277-.737l-.931-.537a2.835,2.835,0,0,1-1.036-3.868l1.587-2.749a2.835,2.835,0,0,1,3.868-1.036l.4.229c2.656,1.533,3.832,4.248,3.4,7.852Zm-4.508-5.938-.4-.229a.622.622,0,0,0-.848.227l-1.587,2.749a.624.624,0,0,0,.227.848l.931.537A2.8,2.8,0,0,1,82,53.562a23.927,23.927,0,0,1-4.513,7.817,2.8,2.8,0,0,1-3.544.585l-.931-.537a.621.621,0,0,0-.848.227L70.573,64.4a.624.624,0,0,0,.227.848l.4.229c1.882,1.087,3.868.813,6.072-.835a21.774,21.774,0,0,0,7.449-12.9c.326-2.733-.431-4.59-2.313-5.676Z" transform="translate(-9 -9)"/></svg>